<mxfile host="app.diagrams.net" modified="2023-03-28T06:42:23.939Z" agent="Mozilla/5.0 (X11; Linux x86_64) AppleWebKit/537.36 (KHTML, like Gecko) Chrome/110.0.0.0 Safari/537.36" version="21.1.1" etag="GqW8WUkxPrIrDtsfAhqv" type="github">
  <diagram name="Page-1" id="A-c4oclNCHP4ASvojBbM">
    <mxGraphModel>
      <root>
        <mxCell id="0" />
        <mxCell id="1" parent="0" />
      </root>
    </mxGraphModel>
  </diagram>
</mxfile>
